<svg id="Layer_1" data-name="Layer 1" xmlns="http://www.w3.org/2000/svg" viewBox="0 0 586.33 142.85"><defs><style>.cls-1{fill:#105c78;}.cls-2{fill:#00addc;}.cls-3{fill:#b2d33b;}</style></defs><path class="cls-1" d="M130,317.91v-37L108,268.2v62.42a18,18,0,0,0,9,15.59l54.06,31.22V352L139,333.5A18,18,0,0,1,130,317.91Z" transform="translate(-108 -234.57)"/><path class="cls-1" d="M148.82,291.77V310a13,13,0,0,0,6.48,11.22l15.76,9.1V304.61Z" transform="translate(-108 -234.57)"/><path class="cls-2" d="M162.06,237l-13.24,7.64v25.42l13.24-7.64a18,18,0,0,1,18,0l31.74,18.32a.62.62,0,0,0,.62,0l21.7-12.53L180.06,237A18,18,0,0,0,162.06,237Z" transform="translate(-108 -234.57)"/><polygon class="cls-2" points="22.01 20.91 0 33.62 22.01 46.33 22.01 20.91"/><path class="cls-2" d="M193.3,291.77l-15.76-9.1a12.94,12.94,0,0,0-13,0l-15.76,9.1,22.24,12.84Z" transform="translate(-108 -234.57)"/><path class="cls-3" d="M212.11,280.91v37a18,18,0,0,1-9,15.59L171.06,352v25.42l54.06-31.22a18,18,0,0,0,9-15.59V268.2Z" transform="translate(-108 -234.57)"/><path class="cls-3" d="M193.3,291.77l-22.24,12.84v25.68l15.76-9.1A13,13,0,0,0,193.3,310Z" transform="translate(-108 -234.57)"/><path class="cls-1" d="M257.53,325.75h4.93l15.77,25.8v-25.8h4.35v33.14H278l-16.15-26.33v26.33h-4.36Z" transform="translate(-108 -234.57)"/><path class="cls-1" d="M289.36,351.6c0-5.35,2.22-7,6.49-7.43,2.27-.24,5.68-.57,9.51-.71v-3.89c0-1.84-.71-2.55-2.55-2.55h-5.73c-1.85,0-2.56.71-2.56,2.55v.95h-4.31v-.85c0-4.31,2-6.35,6.35-6.35h6.77c4.31,0,6.34,2,6.34,6.35v19.22h-4.31v-3.64c-2,2.46-4.12,3.83-8.76,3.83C291.39,359.08,289.36,356.9,289.36,351.6Zm16,1V346.3l-8.95,1.18c-2,.28-2.74.85-2.74,3.88s.71,4,3.41,4A12.78,12.78,0,0,0,305.36,352.59Z" transform="translate(-108 -234.57)"/><path class="cls-1" d="M317.53,352.55V337h-3.78v-3.65h3.83v-6.15h4.26v6.15H328V337h-6.06v15.62c0,1.8.71,2.56,2.56,2.56H328v3.74h-4.07C319.57,358.89,317.53,356.86,317.53,352.55Z" transform="translate(-108 -234.57)"/><path class="cls-1" d="M333,324.94h4.78v4.83H333Zm.24,8.38h4.31v25.57h-4.31Z" transform="translate(-108 -234.57)"/><path class="cls-1" d="M344.2,352.55V339.67c0-4.31,2-6.35,6.34-6.35h7.77c4.31,0,6.34,2,6.34,6.35v12.88c0,4.31-2,6.34-6.34,6.34h-7.77C346.23,358.89,344.2,356.86,344.2,352.55Zm13.54,2.51c1.85,0,2.56-.76,2.56-2.56V339.71c0-1.79-.71-2.55-2.56-2.55h-6.68c-1.8,0-2.55.76-2.55,2.55V352.5c0,1.8.75,2.56,2.55,2.56Z" transform="translate(-108 -234.57)"/><path class="cls-1" d="M371.1,333.32h4.3v3.55c2.23-2.22,4.12-3.79,8.67-3.79,5.16,0,7.2,2,7.2,6.4v19.41h-4.36V339.62c0-1.89-.66-2.6-3.27-2.6a12.73,12.73,0,0,0-8.24,2.55v19.32h-4.3Z" transform="translate(-108 -234.57)"/><path class="cls-1" d="M397,351.6c0-5.35,2.23-7,6.49-7.43,2.27-.24,5.68-.57,9.52-.71v-3.89c0-1.84-.71-2.55-2.56-2.55h-5.73c-1.85,0-2.56.71-2.56,2.55v.95h-4.3v-.85c0-4.31,2-6.35,6.34-6.35h6.77c4.31,0,6.35,2,6.35,6.35v19.22H413v-3.64c-2,2.46-4.12,3.83-8.76,3.83C399,359.08,397,356.9,397,351.6Zm16,1V346.3L404,347.48c-2,.28-2.75.85-2.75,3.88s.71,4,3.41,4A12.79,12.79,0,0,0,413,352.59Z" transform="translate(-108 -234.57)"/><path class="cls-1" d="M424.18,324.32h4.31v34.57h-4.31Z" transform="translate(-108 -234.57)"/><path class="cls-1" d="M447.77,325.75h4.54v29H468v4.16H447.77Z" transform="translate(-108 -234.57)"/><path class="cls-1" d="M471.82,351.6c0-5.35,2.23-7,6.49-7.43,2.27-.24,5.68-.57,9.52-.71v-3.89c0-1.84-.71-2.55-2.56-2.55h-5.73c-1.84,0-2.55.71-2.55,2.55v.95h-4.31v-.85c0-4.31,2-6.35,6.34-6.35h6.77c4.31,0,6.35,2,6.35,6.35v19.22h-4.31v-3.64c-2,2.46-4.12,3.83-8.76,3.83C473.86,359.08,471.82,356.9,471.82,351.6Zm16,1V346.3l-8.95,1.18c-2,.28-2.75.85-2.75,3.88s.71,4,3.41,4A12.79,12.79,0,0,0,487.83,352.59Z" transform="translate(-108 -234.57)"/><path class="cls-1" d="M503.22,355.29v3.6h-4.31V324.32h4.31v12.6c2.23-2.22,4.12-3.79,9-3.79,5.44,0,7.48,2,7.48,6.49v13c0,4.46-2,6.49-7.48,6.49C507.34,359.08,505.45,357.52,503.22,355.29Zm12.17-2.84V339.76c0-2-.76-2.7-3.65-2.7a13,13,0,0,0-8.52,2.56v13a13,13,0,0,0,8.52,2.56C514.63,355.15,515.39,354.44,515.39,352.45Z" transform="translate(-108 -234.57)"/><path class="cls-1" d="M525.57,352.55V339.67c0-4.31,2-6.35,6.35-6.35h7.76c4.31,0,6.35,2,6.35,6.35v12.88c0,4.31-2,6.34-6.35,6.34h-7.76C527.61,358.89,525.57,356.86,525.57,352.55Zm13.55,2.51c1.84,0,2.55-.76,2.55-2.56V339.71c0-1.79-.71-2.55-2.55-2.55h-6.68c-1.8,0-2.56.76-2.56,2.55V352.5c0,1.8.76,2.56,2.56,2.56Z" transform="translate(-108 -234.57)"/><path class="cls-1" d="M552.47,333.32h4.31v3.79c2.09-2,4.07-3.79,7.86-3.79h1.9v4.12h-2.28c-3,0-5.16,1.09-7.48,2.51v18.94h-4.31Z" transform="translate(-108 -234.57)"/><path class="cls-1" d="M569.57,351.6c0-5.35,2.22-7,6.49-7.43,2.27-.24,5.68-.57,9.51-.71v-3.89c0-1.84-.71-2.55-2.55-2.55h-5.73c-1.85,0-2.56.71-2.56,2.55v.95h-4.31v-.85c0-4.31,2-6.35,6.35-6.35h6.77c4.31,0,6.34,2,6.34,6.35v19.22h-4.31v-3.64c-2,2.46-4.12,3.83-8.76,3.83C571.6,359.08,569.57,356.9,569.57,351.6Zm16,1V346.3l-9,1.18c-2,.28-2.74.85-2.74,3.88s.71,4,3.41,4A12.78,12.78,0,0,0,585.57,352.59Z" transform="translate(-108 -234.57)"/><path class="cls-1" d="M597.75,352.55V337H594v-3.65h3.83v-6.15h4.26v6.15h6.11V337H602.1v15.62c0,1.8.71,2.56,2.56,2.56h3.5v3.74h-4.07C599.78,358.89,597.75,356.86,597.75,352.55Z" transform="translate(-108 -234.57)"/><path class="cls-1" d="M612.14,352.55V339.67c0-4.31,2-6.35,6.35-6.35h7.76c4.31,0,6.35,2,6.35,6.35v12.88c0,4.31-2,6.34-6.35,6.34h-7.76C614.18,358.89,612.14,356.86,612.14,352.55Zm13.55,2.51c1.84,0,2.55-.76,2.55-2.56V339.71c0-1.79-.71-2.55-2.55-2.55H619c-1.8,0-2.56.76-2.56,2.55V352.5c0,1.8.76,2.56,2.56,2.56Z" transform="translate(-108 -234.57)"/><path class="cls-1" d="M639,333.32h4.31v3.79c2.08-2,4.07-3.79,7.86-3.79h1.9v4.12h-2.28c-3,0-5.16,1.09-7.48,2.51v18.94H639Z" transform="translate(-108 -234.57)"/><path class="cls-1" d="M664.38,358.89l-9.19-25.57h4.55l6.82,20.6,7-20.6H678l-12.13,33.15h-4.12Z" transform="translate(-108 -234.57)"/><path d="M257.53,249.42h28c7.63,0,11.25,3.61,11.25,11.25v7.71c0,4.42-1.93,7.07-5.22,8.52,3.93,1.36,5.86,4.18,5.86,8.6v8.92c0,7.63-3.61,11.25-11.25,11.25h-28.6Zm27.08,24c3.21,0,4.42-1.2,4.42-4.34v-8.27c0-3.22-1.21-4.42-4.42-4.42H265.25v17Zm.64,25.23c3.21,0,4.42-1.2,4.42-4.42v-9.56c0-3.21-1.21-4.42-4.42-4.42h-20v18.4Z" transform="translate(-108 -234.57)"/><path d="M308.15,262.27h7.31v6.43c3.54-3.45,6.91-6.43,13.34-6.43H332v7h-3.86c-5.14,0-8.75,1.84-12.69,4.25v32.15h-7.31Z" transform="translate(-108 -234.57)"/><path d="M338,294.9V273c0-7.31,3.45-10.77,10.76-10.77H361.9c7.31,0,10.76,3.46,10.76,10.77V294.9c0,7.31-3.45,10.77-10.76,10.77H348.72C341.41,305.67,338,302.21,338,294.9Zm23,4.26c3.14,0,4.34-1.29,4.34-4.34v-21.7c0-3.05-1.2-4.34-4.34-4.34H349.61c-3.06,0-4.34,1.29-4.34,4.34v21.7c0,3.05,1.28,4.34,4.34,4.34Z" transform="translate(-108 -234.57)"/><path d="M382.63,294.9V273c0-7.31,3.45-10.77,10.77-10.77h13.17c7.31,0,10.77,3.46,10.77,10.77V294.9c0,7.31-3.46,10.77-10.77,10.77H393.4C386.08,305.67,382.63,302.21,382.63,294.9Zm23,4.26c3.13,0,4.33-1.29,4.33-4.34v-21.7c0-3.05-1.2-4.34-4.33-4.34H394.28c-3,0-4.34,1.29-4.34,4.34v21.7c0,3.05,1.29,4.34,4.34,4.34Z" transform="translate(-108 -234.57)"/><path d="M455.34,305.67l-11.65-21.38L435.5,294v11.66h-7.23V247h7.23v37.6l17.91-22.34h8.84l-13.9,16.48,15,26.92Z" transform="translate(-108 -234.57)"/><path d="M470.53,247h7.31V268.3c3.77-3.78,7-6.43,14.7-6.43,8.75,0,12.21,3.46,12.21,10.85v32.95h-7.39V273c0-3.21-1.13-4.42-5.55-4.42a21.52,21.52,0,0,0-14,4.34v32.79h-7.31Z" transform="translate(-108 -234.57)"/><path d="M514.39,293.29c0-9.08,3.78-11.81,11-12.61,3.86-.41,9.64-1,16.15-1.21v-6.59c0-3.13-1.21-4.34-4.34-4.34h-9.72c-3.14,0-4.34,1.21-4.34,4.34v1.61h-7.31V273c0-7.31,3.45-10.77,10.76-10.77h11.49c7.31,0,10.77,3.46,10.77,10.77v32.63h-7.31v-6.19c-3.38,4.18-7,6.51-14.87,6.51C517.85,306,514.39,302.29,514.39,293.29ZM541.55,295V284.29l-15.19,2c-3.37.48-4.66,1.45-4.66,6.59s1.21,6.75,5.79,6.75C534,299.64,537.29,297.87,541.55,295Z" transform="translate(-108 -234.57)"/><path d="M555.37,262.27h7.79l11.41,37.05L586,262.27h7.47l-14.7,43.4h-8.68Z" transform="translate(-108 -234.57)"/><path d="M606.87,285.74v9.4c0,3.05,1.28,4.34,4.34,4.34h10.84c3.05,0,4.34-1.29,4.34-4.34v-3.22h7.31v3c0,7.31-3.45,10.77-10.76,10.77H610.32c-7.31,0-10.76-3.46-10.76-10.77V273c0-7.31,3.45-10.77,10.76-10.77h12.62c7.31,0,10.76,3.46,10.76,10.77v12.7Zm0-12.94v7.47h19.52V272.8c0-3.05-1.2-4.34-4.34-4.34H611.21C608.15,268.46,606.87,269.75,606.87,272.8Z" transform="translate(-108 -234.57)"/><path d="M644.31,262.27h7.31v6c3.78-3.78,7-6.43,14.7-6.43,8.76,0,12.21,3.46,12.21,10.85v32.95h-7.39V273c0-3.21-1.12-4.42-5.54-4.42a21.55,21.55,0,0,0-14,4.34v32.79h-7.31Z" transform="translate(-108 -234.57)"/><path d="M689,261.26a5.24,5.24,0,1,1-5.38,5.22A5.19,5.19,0,0,1,689,261.26Zm0,9.36a4.12,4.12,0,0,0,0-8.24,4.12,4.12,0,0,0,0,8.24Zm-2.09-7.08h2.21c1.47,0,2.3.46,2.3,1.74a1.46,1.46,0,0,1-1.54,1.57l1.57,2.56h-1.22l-1.43-2.51H688v2.51h-1.16ZM688,266h1c.66,0,1.15-.09,1.15-.81s-.67-.73-1.21-.73h-1Z" transform="translate(-108 -234.57)"/></svg>