<?xml version="1.0" encoding="UTF-8"?>
<svg width="395" height="300" xmlns="http://www.w3.org/2000/svg">
 <metadata id="metadata62">image/svg+xml</metadata>

 <g>
  <title>Layer 1</title>
  <g id="svg_1">
   <g id="MI" stroke-miterlimit="4" stroke-width="0.75" fill="#d3d3d3" stroke="#ffffff">
    <path d="m348.817078,128.758377l-3.233215,-8.24469l-2.263245,-9.052979l-2.424866,-3.233215l-2.586609,-1.778275l-1.616577,1.131638l-3.879883,1.778259l-1.93988,5.011475l-2.74823,3.718201l-1.131653,0.646637l-1.454956,-0.646637c0,0 -2.586548,-1.454956 -2.424866,-2.101593c0.161682,-0.646637 0.484985,-5.011475 0.484985,-5.011475l3.394836,-1.293289l0.80835,-3.394867l0.646606,-2.586563l2.424927,-1.616608l-0.323303,-10.022949l-1.616638,-2.263245l-1.293274,-0.808304l-0.808289,-2.101578l0.808289,-0.808304l1.616577,0.323318l0.161682,-1.616608l-2.424927,-2.26326l-1.293274,-2.586548l-2.586548,0l-4.526489,-1.454956l-5.49646,-3.394867l-2.74823,0l-0.646667,0.646645l-0.969971,-0.484985l-3.071533,-2.263245l-2.909851,1.778259l-2.909912,2.263252l0.323303,3.556534l0.969971,0.323318l2.101563,0.484985l0.484985,0.808289l-2.586548,0.808319l-2.586548,0.323318l-1.454956,1.778252l-0.323303,2.101593l0.323303,1.616592l0.323303,5.49646l-3.556519,2.101593l-0.646667,-0.161667l0,-4.203171l1.293335,-2.424896l0.646606,-2.424911l-0.808289,-0.808304l-1.939941,0.808304l-0.969971,4.203178l-2.74823,1.131599l-1.778259,1.939941l-0.161621,0.969955l0.646606,0.808304l-0.646606,2.586563l-2.263245,0.484985l0,1.131622l0.808289,2.424911l-1.131653,6.143097l-1.616577,4.041504l0.646606,4.688156l0.484985,1.131622l-0.808289,2.424911l-0.323303,0.808304l-0.323303,2.74823l3.556519,5.981438l2.909851,6.466415l1.454956,4.849823l-0.808289,4.688156l-0.969971,5.98143l-2.424927,5.173141l-0.323303,2.74823l-3.25885,3.085144l4.40863,-0.162048l21.418457,-2.263245l7.277832,-0.987076l0.096375,1.666336l6.851929,-1.212448l10.298096,-1.503128l3.854187,-0.460922l0.138062,-0.58754l0.161682,-1.454941l2.101563,-3.718201l2.000549,-1.737839l-0.22229,-5.051895l1.596985,-1.596985l1.090637,-0.342941l0.22229,-3.556534l1.535767,-3.031113l1.050781,0.606216l0.161682,0.646637l0.808289,0.161667l1.939941,-0.969971l-0.323364,-9.537964l0,0.000015z" id="MI-" stroke-miterlimit="4" stroke-width="0.75" stroke="#ffffff" fill="#d3d3d3"/>
    <path id="SP-" d="m232.576355,33.58049l1.828979,-2.057602l2.171936,-0.800186l5.37262,-3.886597l2.286194,-0.571556l0.457275,0.457253l-5.143982,5.14402l-3.315063,1.943291l-2.057617,0.914497l-1.600342,-1.14312zm86.174377,32.128181l0.646606,2.505745l3.233215,0.161659l1.293335,-1.212463c0,0 -0.080872,-1.454941 -0.404175,-1.616608c-0.323303,-0.161659 -1.616577,-1.8591 -1.616577,-1.8591l-2.182434,0.242493l-1.616638,0.161659l-0.323303,1.13163l0.969971,0.484985zm-100.301636,-2.974007l0.716309,-0.580399l2.74823,-0.808311l3.556519,-2.263237l0,-0.969971l0.646667,-0.646645l5.981445,-0.969955l2.424866,-1.939934l4.364868,-2.101578l0.161621,-1.293289l1.939941,-2.909889l1.778259,-0.808296l1.293274,-1.778267l2.263245,-2.263252l4.364868,-2.424904l4.688171,-0.484978l1.131592,1.131622l-0.323303,0.969963l-3.718201,0.969963l-1.454956,3.071548l-2.263245,0.808304l-0.484985,2.424904l-2.424927,3.233208l-0.323303,2.586571l0.808289,0.484978l0.969971,-1.131615l3.55658,-2.909889l1.293274,1.293274l2.263245,0l3.233215,0.969963l1.454895,1.13163l1.454956,3.071548l2.74823,2.748222l3.879883,-0.161659l1.454895,-0.969963l1.616638,1.293282l1.616577,0.484993l1.293274,-0.808311l1.131653,0l1.616577,-0.969963l4.041565,-3.556526l3.394836,-1.131622l6.628113,-0.323318l4.526489,-1.939934l2.586548,-1.293274l1.454956,0.161659l0,5.658104l0.484985,0.323326l2.909851,0.808304l1.939941,-0.484985l6.143127,-1.6166l1.131592,-1.131622l1.454956,0.484978l0,6.951405l3.233215,3.071552l1.293274,0.646637l1.293274,0.969963l-1.293274,0.323318l-0.808289,-0.323318l-3.718201,-0.484985l-2.101563,0.646645l-2.263306,-0.161659l-3.233154,1.454948l-1.77832,0l-5.819763,-1.293289l-5.173096,0.161659l-1.939941,2.586571l-6.951416,0.646637l-2.424927,0.808304l-1.131592,3.071548l-1.293274,1.13163l-0.484985,-0.161659l-1.454956,-1.616615l-4.526489,2.424911l-0.646667,0l-1.131592,-1.616608l-0.808289,0.161659l-1.939941,4.364845l-0.969971,4.041504l-3.181091,7.000793l-1.176819,-1.034256l-1.371704,-1.031326l-1.940796,-10.288017l-3.544495,-1.370056l-2.052551,-2.286224l-12.120361,-2.743484l-2.855286,-1.02964l-8.230408,-2.172737l-7.890015,-1.14312l-3.719299,-5.145687l0,-0.000004z" stroke-miterlimit="4" stroke-width="0.75" stroke="#ffffff" fill="#d3d3d3"/>
   </g>
   <path id="OH" d="m386.281982,144.849808l-6.093506,4.053345l-3.879883,2.263245l-3.394836,3.718201l-4.041504,3.879852l-3.233215,0.808289l-2.909912,0.484985l-5.49646,2.586563l-2.101563,0.161667l-3.394897,-3.071548l-5.173096,0.646652l-2.586609,-1.454956l-2.381042,-1.35083l-4.892578,0.703415l-10.184631,1.616608l-11.206848,2.184723l1.293274,14.630295l1.778259,13.741165l2.586548,23.440796l0.565857,4.831177l4.122314,-0.129028l2.424927,-0.808319l3.363831,1.503143l2.070496,4.364838l5.138916,-0.01709l1.891724,2.118683l1.761169,-0.065277l2.538391,-1.341461l2.504211,0.37149l5.421265,0.482666l1.726929,-2.13266l2.345703,-1.293304l2.070496,-0.680847l0.646606,2.74826l1.778259,0.96994l3.475708,2.344086l2.182434,-0.080811l1.33313,-0.492493l0.184692,-2.761536l1.585388,-1.454956l0.099121,-4.792725c0,0 1.023987,-4.10907 1.023987,-4.10907l1.299255,-0.601257l1.32135,1.147736l0.538147,1.697021l1.719116,-1.037415l0.439026,-1.460754l-1.116699,-1.903076l0.066284,-2.314423l0.748962,-1.072296l2.152771,-3.306488l1.050232,-1.54335l2.101563,0.484985l2.263306,-1.616608l3.071533,-3.394867l2.771484,-4.078735l0.320313,-5.055511l0.484985,-5.01149l-0.176758,-5.306885l-0.954834,-2.894775l0.351196,-1.189774l1.804382,-1.750107l-2.288757,-9.047333l-2.909912,-19.361771z" stroke-miterlimit="4" stroke-width="0.75" stroke="#ffffff" fill="#d3d3d3"/>
   <path id="IN" d="m270.52655,251.492798l0.065308,-2.858582l0.484985,-4.526489l2.263245,-2.909882l1.778259,-3.879883l2.586548,-4.203156l-0.484924,-5.819794l-1.778259,-2.74823l-0.323364,-3.233215l0.808289,-5.49646l-0.484924,-6.951416l-1.293335,-16.004425l-1.293274,-15.357758l-0.970459,-11.720016l3.071045,0.889511l1.454956,0.969955l1.131592,-0.323318l2.101624,-1.939911l2.82959,-1.616989l5.092773,-0.162048l21.98584,-2.26326l5.575745,-0.533157l1.503174,15.956207l4.251343,36.841537l0.59845,5.771606l-0.371521,2.263245l1.228027,1.79538l0.096375,1.372559l-2.521301,1.599518l-3.539429,1.5513l-3.202148,0.550262l-0.59845,4.866943l-4.574707,3.312469l-2.796387,4.010437l0.323303,2.37674l-0.58136,1.53421l-3.326416,0l-1.585571,-1.616608l-2.493286,1.262207l-2.682983,1.503113l0.161682,3.054474l-1.193787,0.258026l-0.467896,-1.018158l-2.16687,-1.503143l-3.250305,1.341492l-1.551331,3.006256l-1.437805,-0.808289l-1.454956,-1.599518l-4.464355,0.484985l-5.592834,0.969971l-2.909912,1.5513z" stroke-miterlimit="4" stroke-width="0.75" stroke="#ffffff" fill="#d3d3d3"/>
   <path id="IL" d="m270.498474,251.863922l0.03125,-3.229706l0.567383,-4.645966l2.33252,-2.915863l1.866699,-4.075745l2.232971,-3.995331l-0.37146,-5.252411l-2.005249,-3.542572l-0.096375,-3.34668l0.694824,-5.269501l-0.825378,-7.178375l-1.066345,-15.777451l-1.293274,-15.017334l-0.922302,-11.639206l-0.272522,-0.921387l-0.808289,-2.586578l-1.293274,-3.718185l-1.616577,-1.778275l-1.454956,-2.586548l-0.233582,-5.488968l-45.796448,2.598251l0.228638,2.371948l2.286255,0.685867l0.914429,1.143112l0.457275,1.828979l3.886597,3.429337l0.685852,2.28624l-0.685852,3.429337l-1.828979,3.657959l-0.685852,2.514847l-2.286255,1.828979l-1.828979,0.685883l-5.258301,1.371719l-0.685913,1.828979l-0.685852,2.057617l0.685852,1.371735l1.828979,1.600357l-0.228577,4.115204l-1.828979,1.600357l-0.685913,1.600357l0,2.743484l-1.828979,0.45723l-1.600342,1.143127l-0.228638,1.371735l0.228638,2.057602l-1.714661,1.314575l-1.028809,2.800629l0.457275,3.657959l2.286194,7.315933l7.315918,7.544556l5.486938,3.657959l-0.228638,4.343811l0.914551,1.371735l6.401428,0.457245l2.743469,1.371735l-0.685852,3.657959l-2.286255,5.944214l-0.685852,3.200714l2.286194,3.886566l6.401428,5.258331l4.572449,0.685883l2.057617,5.029694l2.057617,3.200714l-0.91449,2.972076l1.600342,4.115204l1.828979,2.057617l1.414063,-0.880676l0.907654,-2.074799l2.213074,-1.747192l2.13147,-0.61441l2.602539,1.17981l3.626953,1.375702l1.188965,-0.298248l0.19989,-2.258453l-1.287292,-2.411774l0.304199,-2.37674l1.838379,-1.347443l3.022583,-0.810272l1.260864,-0.458527l-0.61261,-1.386871l-0.791382,-2.35437l1.432617,-0.980988l1.157471,-3.21402z" stroke-miterlimit="4" stroke-width="0.75" stroke="#ffffff" fill="#d3d3d3"/>
   <path id="WI" d="m266.022949,148.890152l-0.066772,-3.157425l-1.179077,-4.526505l-0.646667,-6.143082l-1.131592,-2.424911l0.96991,-3.071548l0.80835,-2.909897l1.454895,-2.586563l-0.646606,-3.394867l-0.646667,-3.556534l0.484985,-1.778259l1.939941,-2.424911l0.161682,-2.74823l-0.80835,-1.293289l0.646667,-2.586563l-0.452515,-4.170715l2.74823,-5.658112l2.909851,-6.789734l0.161682,-2.263245l-0.323303,-0.969971l-0.80835,0.484985l-4.203125,6.304764l-2.74823,4.041504l-1.939941,1.778275l-0.808289,2.263229l-1.954956,0.808304l-1.131592,1.939926l-1.454956,-0.323318l-0.161682,-1.778259l1.293274,-2.424911l2.101624,-4.688156l1.778259,-1.616592l0.990784,-2.357849l-2.560425,-1.901352l-1.974792,-10.366982l-3.547485,-1.34198l-1.946289,-2.308334l-12.1297,-2.721642l-2.875854,-1.012047l-8.213135,-2.16729l-7.917908,-1.158752l-3.765198,-5.130669l-0.750366,0.554008l-1.197937,-0.161659l-0.646667,-1.131622l-1.333984,0.296555l-1.131653,0.161659l-1.778259,0.969963l-0.969971,-0.646645l0.646667,-1.939926l1.939941,-3.071556l1.131592,-1.131615l-1.93988,-1.454941l-2.101624,0.808296l-2.909912,1.939926l-7.43634,3.233208l-2.909912,0.646637l-2.909851,-0.484978l-0.98175,-0.87825l-2.116699,2.835182l-0.228638,2.743469l0,8.45903l-1.143127,1.600365l-5.258301,3.886574l-2.286194,5.944183l0.457214,0.228622l2.514832,2.057617l0.685913,3.200714l-1.828979,3.200714l0,3.886581l0.457214,6.630051l2.972107,2.972107l3.429321,0l1.828979,3.200714l3.429321,0.457245l3.886597,5.715576l7.087341,4.115204l2.057556,2.743469l0.914551,7.430237l0.685852,3.315018l2.286194,1.600372l0.228638,1.371735l-2.057617,3.429337l0.228638,3.200729l2.514832,3.886566l2.514893,1.143112l2.972046,0.457245l1.342346,1.380127l45.298401,-2.669449z" stroke-miterlimit="4" stroke-width="0.75" stroke="#ffffff" fill="#d3d3d3"/>
   <path id="MO" d="m209.397278,199.634644l-2.519897,-3.08725l-1.143127,-2.286224l-64.357208,2.400528l-2.286285,0.114319l1.257446,2.514847l-0.228638,2.286224l2.514862,3.886581l3.086395,4.115219l3.086395,2.743469l2.161255,0.228607l1.496704,0.91452l0,2.972076l-1.828949,1.600372l-0.457275,2.286224l2.057617,3.429352l2.514862,2.972076l2.514832,1.828979l1.371735,11.65976l0.314148,36.072205l0.228607,4.686737l0.457245,5.383514l22.432983,-0.866821l23.206055,-0.685852l20.804626,-0.801025l11.654785,-0.230286l2.169373,3.425995l-0.684204,3.307495l-3.087219,2.403046l-0.572388,1.837341l5.378479,0.457245l3.894958,-0.685883l1.717163,-5.493622l0.651428,-5.856781l2.098022,-2.555176l2.596008,-1.486877l0.051453,-3.050232l1.016052,-1.936493l-1.694275,-2.543762l-1.330933,0.984253l-1.992615,-2.227234l-1.285034,-4.759003l0.801025,-2.518219l-1.944153,-3.427643l-1.830627,-4.575806l-4.799377,-0.799347l-6.968811,-5.598755l-1.718872,-4.113525l0.799377,-3.200714l2.059265,-6.057678l0.458923,-2.863617l-1.949158,-1.031311l-6.855347,-0.797668l-1.027954,-1.712158l-0.111816,-4.230377l-5.486938,-3.431l-6.975525,-7.771484l-2.286194,-7.315948l-0.230286,-4.225311l0.801025,-2.287903z" stroke-miterlimit="4" stroke-width="0.75" stroke="#ffffff" fill="#d3d3d3"/>
   <path id="IA" d="m220.14856,151.105789l0.264404,2.786194l2.223694,0.577255l0.953979,1.225342l0.5,1.855347l3.792847,3.358658l0.685852,2.391495l-0.674316,3.424469l-1.582336,3.231979l-0.799316,2.741791l-2.172791,1.602051l-1.715515,0.572388l-5.578979,1.860214l-1.391479,3.848679l0.728638,1.37175l1.840515,1.682587l-0.282959,4.036285l-1.763123,1.537857l-0.771423,1.643143l0.127258,2.776321l-1.886353,0.457245l-1.625427,1.104904l-0.278809,1.352631l0.278809,2.114929l-1.551025,1.116058l-2.47052,-3.13327l-1.262573,-2.449875l-65.73584,2.514847l-0.91803,0.165436l-2.052399,-4.515961l-0.228607,-6.630066l-1.600372,-4.115204l-0.685852,-5.258316l-2.286224,-3.657974l-0.91449,-4.801056l-2.743469,-7.544556l-1.143127,-5.372635l-1.371735,-2.171921l-1.600342,-2.743454l1.953979,-4.843826l1.371735,-5.715576l-2.743469,-2.057602l-0.457245,-2.743469l0.91449,-2.514862l1.714661,0l82.654022,-1.26947l0.834229,4.183121l2.252197,1.560959l0.256714,1.423096l-2.029541,3.389313l0.19043,3.205521l2.514832,3.798203l2.526794,1.29361l3.079285,0.503052l0.658325,0.832367z" stroke-miterlimit="4" stroke-width="0.75" stroke="#ffffff" fill="#d3d3d3"/>
   <path id="MN" d="m126.194855,80.345871l-0.457275,-8.459038l-1.828979,-7.315918l-1.828979,-13.488724l-0.457245,-9.83078l-1.828979,-3.429344l-1.600342,-5.029694l0,-10.288017l0.685852,-3.886589l-1.820923,-5.451668l30.132416,0.035271l0.323303,-8.244682l0.646637,-0.161663l2.263275,0.484982l1.939911,0.808304l0.808289,5.496456l1.454956,6.143102l1.616608,1.6166l4.849823,0l0.323303,1.454947l6.304749,0.323318l0,2.101585l4.849854,0l0.323303,-1.293282l1.131592,-1.131622l2.263245,-0.646645l1.293335,0.969963l2.909851,0l3.879883,2.586563l5.334778,2.42491l2.424927,0.484978l0.484985,-0.969961l1.454895,-0.48498l0.484985,2.909889l2.586609,1.293282l0.484985,-0.484978l1.293274,0.161659l0,2.101585l2.586548,0.969965l3.071533,0l1.616638,-0.808306l3.233215,-3.233208l2.586548,-0.484985l0.808289,1.778267l0.484985,1.293282l0.969971,0l0.969971,-0.808296l8.891296,-0.323326l1.778259,3.07155l0.646667,0l0.713623,-1.084276l4.43988,-0.370667l-0.612061,2.279455l-3.938721,1.837132l-9.245789,4.061127l-4.774719,2.006897l-3.071594,2.586571l-2.424866,3.556526l-2.263245,3.879852l-1.77832,0.808304l-4.526489,5.011467l-1.293274,0.161659l-4.327759,2.757126l-2.462891,3.205109l-0.228638,3.191391l0.09436,8.04335l-1.376038,1.688751l-5.081543,3.759964l-2.230042,5.982407l2.871704,2.233719l0.679932,3.226974l-1.855286,3.238937l0.170837,3.748016l0.368835,6.730392l3.028259,3.001999l3.328979,0l1.891113,3.132599l3.379211,0.503265l3.859131,5.671478l7.08728,4.116745l2.143188,2.875122l0.671143,6.439514l-81.211517,1.144791l-0.337921,-35.676865l-0.457245,-2.972076l-4.115204,-3.429352l-1.143127,-1.828979l0,-1.600372l2.057617,-1.600342l1.371735,-1.371735l0.228638,-3.200729z" stroke-miterlimit="4" stroke-width="0.75" stroke="#ffffff" fill="#d3d3d3"/>
   <path id="KS" d="m158.837616,275.901764l-12.618256,0.204437l-46.089081,-0.457245l-44.557495,-2.057617l-24.62973,-1.257416l3.893799,-64.594971l22.083435,0.675171l40.289154,0.8414l44.301239,0.987579l5.095612,0l2.184418,2.162415l2.017639,-0.021393l1.64032,1.012482l-0.0625,3.009216l-1.828979,1.725372l-0.332245,2.232178l1.843079,3.402313l2.952362,3.195068l2.327332,1.614471l1.300781,11.240814l0.189117,36.085724z" stroke-miterlimit="4" stroke-width="0.75" stroke="#ffffff" fill="#d3d3d3"/>
   <path id="NE" d="m137.054901,192.222061l3.230621,7.019913l-0.128632,2.302521l3.459198,5.493881l2.719299,3.152328l-5.049469,0l-43.482574,-0.93866l-40.786865,-0.89032l-22.252197,-0.783875l1.072754,-21.327835l-32.318238,-2.920258l4.343842,-44.009857l15.546326,1.028809l20.118774,1.143112l17.832581,1.143112l23.776764,1.143112l10.74527,-0.457245l2.057587,2.286224l4.801086,2.972092l1.143097,0.914505l4.343842,-1.37175l3.886597,-0.457245l2.743469,-0.228622l1.828979,1.371735l4.057434,1.600372l2.972076,1.600357l0.457245,1.600357l0.91449,2.057602l1.828979,0l0.797974,0.046173l0.894226,4.681808l2.920288,8.467926l0.57251,3.756714l2.523499,3.774246l0.56958,5.114136l1.607239,4.240372l0.25235,6.474258z" stroke-miterlimit="4" stroke-width="0.75" stroke="#ffffff" fill="#d3d3d3"/>
   <path id="SD" d="m127.4039,155.546127l-0.047455,-0.580856l-2.895691,-4.845444l1.860229,-4.712112l1.492706,-5.886536l-2.78186,-2.079712l-0.385162,-2.743469l0.792389,-2.554337l3.188538,0.015198l-0.123108,-5.006134l-0.333282,-30.174255l-0.617737,-3.767578l-4.072327,-3.330933l-0.982605,-1.676956l-0.0625,-1.608826l2.022095,-1.529388l1.532227,-1.66568l0.244965,-2.656784l-58.25708,-1.600349l-54.799224,-3.449089l-5.325256,63.691193l14.590271,0.903793l19.949827,1.205612l17.743073,0.928589l23.776764,1.303574l11.982697,-0.424637l1.966278,2.245178l5.194641,3.253357l0.763885,0.722748l4.541443,-1.452805l6.540558,-0.614914l1.675293,1.336273l4.204498,1.59613l2.945068,1.635834l0.398987,1.483795l1.03949,2.240891l2.237366,-0.20137z" stroke-miterlimit="4" stroke-width="0.75" stroke="#ffffff" fill="#d3d3d3"/>
   <path id="ND" d="m126.262299,80.439941l-0.614899,-8.43367l-1.676941,-6.815918l-1.89151,-13.024216l-0.457214,-10.98703l-1.739471,-3.077141l-1.756622,-5.194397l0.03125,-10.444267l0.623383,-3.824089l-1.834106,-5.467762l-28.642242,-0.564026l-18.590973,-0.646642l-26.512299,-1.293284l-22.946348,-2.133869l-6.993257,67.176834l54.93225,3.343651l58.069,1.385826z" stroke-miterlimit="4" stroke-width="0.75" stroke="#ffffff" fill="#d3d3d3"/>
  </g>
 </g>
</svg>